<svg width="15" height="15" viewBox="0 0 15 15" fill="none" xmlns="http://www.w3.org/2000/svg">
<circle cx="7.5" cy="7.5" r="7.5" fill="#858585"/>
<path d="M10.7587 4.24725C10.557 4.04557 10.2313 4.04557 10.0296 4.24725L7.50089 6.77078L4.97219 4.24208C4.77051 4.0404 4.44473 4.0404 4.24305 4.24208C4.04138 4.44375 4.04138 4.76954 4.24305 4.97121L6.77175 7.49991L4.24305 10.0286C4.04138 10.2303 4.04138 10.5561 4.24305 10.7577C4.44473 10.9594 4.77051 10.9594 4.97219 10.7577L7.50089 8.22905L10.0296 10.7577C10.2313 10.9594 10.557 10.9594 10.7587 10.7577C10.9604 10.5561 10.9604 10.2303 10.7587 10.0286L8.23002 7.49991L10.7587 4.97121C10.9552 4.77471 10.9552 4.44375 10.7587 4.24725Z" fill="white"/>
</svg>
